<?xml version="1.0" standalone="no"?><!DOCTYPE svg PUBLIC "-//W3C//DTD SVG 1.1//EN" "http://www.w3.org/Graphics/SVG/1.1/DTD/svg11.dtd"><svg t="1555926656199" class="icon" style="" viewBox="0 0 1024 1024" version="1.1" xmlns="http://www.w3.org/2000/svg" p-id="1370" xmlns:xlink="http://www.w3.org/1999/xlink" width="30" height="30"><defs><style type="text/css"></style></defs><path d="M661.600715 533.420869C725.750757 486.196311 767.626493 410.41844 767.626493 324.82911c0-142.905734-116.272143-259.173784-259.186064-259.173784-142.911874 0-259.185041 116.26805-259.18504 259.173784 0 86.633103 42.88267 163.265434 108.370173 210.337519-153.393599 60.431348-262.400269 209.732745-262.400269 384.322086 0 21.457708 17.400299 38.856983 38.85903 38.856983 21.459754 0 38.858006-17.399275 38.858006-38.856983 0-184.989201 150.502759-335.503217 335.4981-335.503217 1.602498 0 3.140527-0.207731 4.735861-0.245594 0.806365 0.056282 1.565658 0.245593 2.381234 0.245594 184.996364 0 335.49503 150.514015 335.49503 335.503217 0 21.457708 17.401322 38.856983 38.8621 38.856983 21.458731 0 38.858006-17.399275 38.858006-38.856983-0.001023-176.37501-111.293759-326.889025-267.171945-386.067846zM326.971401 324.82911c0-100.06502 81.408101-181.458795 181.469028-181.458795 100.05888 0 181.469028 81.394798 181.469028 181.458795 0 100.047624-81.410148 181.441399-181.469028 181.441399-100.060927-0.001023-181.469028-81.395822-181.469028-181.441399z" p-id="1371"></path></svg>